<svg width="110" height="31" viewBox="0 0 110 31" fill="none" xmlns="http://www.w3.org/2000/svg">
<g clip-path="url(#clip0_54_692)">
<rect width="110" height="31" fill="white"/>
<path d="M45.432 3.256C46.5413 2.136 47.928 1.576 49.592 1.576C51.256 1.576 52.6427 2.136 53.752 3.256C54.8613 4.376 55.416 5.76267 55.416 7.416C55.416 9.05867 54.8613 10.44 53.752 11.56C52.6533 12.6693 51.2667 13.224 49.592 13.224C47.9173 13.224 46.5253 12.6693 45.416 11.56C44.3173 10.44 43.768 9.05867 43.768 7.416C43.768 5.76267 44.3227 4.376 45.432 3.256ZM46.68 10.456C47.4373 11.2347 48.408 11.624 49.592 11.624C50.776 11.624 51.7413 11.2347 52.488 10.456C53.2453 9.66667 53.624 8.65333 53.624 7.416C53.624 6.17867 53.2453 5.16533 52.488 4.376C51.7413 3.576 50.776 3.176 49.592 3.176C48.408 3.176 47.4373 3.576 46.68 4.376C45.9333 5.16533 45.56 6.17867 45.56 7.416C45.56 8.65333 45.9333 9.66667 46.68 10.456ZM59.0675 1.8H61.5315C62.5448 1.8 63.3608 2.00267 63.9795 2.408C64.9075 3.016 65.3715 3.92267 65.3715 5.128C65.3715 6.14133 65.0088 6.95733 64.2835 7.576C63.6008 8.16267 62.6888 8.456 61.5475 8.456H60.7955V13H59.0675V1.8ZM60.7955 3.4V6.856H61.5475C62.9448 6.856 63.6435 6.27467 63.6435 5.112C63.6435 3.97067 62.9395 3.4 61.5315 3.4H60.7955ZM74.3643 3.4H71.8043V13H70.0763V3.4H67.5163V1.8H74.3643V3.4ZM77.4081 1.8H79.1361V13H77.4081V1.8ZM84.4414 3.256C85.5507 2.136 86.9374 1.576 88.6014 1.576C90.2654 1.576 91.652 2.136 92.7614 3.256C93.8707 4.376 94.4254 5.76267 94.4254 7.416C94.4254 9.05867 93.8707 10.44 92.7614 11.56C91.6627 12.6693 90.276 13.224 88.6014 13.224C86.9267 13.224 85.5347 12.6693 84.4254 11.56C83.3267 10.44 82.7774 9.05867 82.7774 7.416C82.7774 5.76267 83.332 4.376 84.4414 3.256ZM85.6894 10.456C86.4467 11.2347 87.4174 11.624 88.6014 11.624C89.7854 11.624 90.7507 11.2347 91.4974 10.456C92.2547 9.66667 92.6334 8.65333 92.6334 7.416C92.6334 6.17867 92.2547 5.16533 91.4974 4.376C90.7507 3.576 89.7854 3.176 88.6014 3.176C87.4174 3.176 86.4467 3.576 85.6894 4.376C84.9427 5.16533 84.5694 6.17867 84.5694 7.416C84.5694 8.65333 84.9427 9.66667 85.6894 10.456ZM99.8049 13H98.0769V1.064L106.173 9.544V1.8H107.901V13.672L99.8049 5.192V13ZM43.896 18.8H51.4L45.016 29.104H51.4V30H43.224L49.624 19.696H43.896V18.8ZM54.8518 30V18.8H60.8518V19.696H55.9398V23.28H60.6758V24.176H55.9398V29.104H60.8518V30H54.8518ZM64.7486 30V18.8H67.7406C67.9326 18.8 68.13 18.816 68.3326 18.848C68.5353 18.8693 68.802 18.9387 69.1326 19.056C69.4633 19.1733 69.7513 19.3333 69.9966 19.536C70.242 19.728 70.4553 20.0267 70.6366 20.432C70.8286 20.8267 70.9246 21.2907 70.9246 21.824C70.9246 22.624 70.6526 23.3067 70.1086 23.872C69.5753 24.4267 68.674 24.7467 67.4046 24.832L71.3726 30H70.0926L66.2526 24.848H65.8366V30H64.7486ZM65.8366 23.952H66.9566C68.8553 23.952 69.8046 23.2427 69.8046 21.824C69.8046 21.376 69.7353 21.008 69.5966 20.72C69.458 20.4213 69.2553 20.2027 68.9886 20.064C68.722 19.9253 68.45 19.8293 68.1726 19.776C67.906 19.7227 67.586 19.696 67.2126 19.696H65.8366V23.952ZM84.4226 28.672C83.26 29.7707 81.8306 30.32 80.1346 30.32C78.4386 30.32 77.004 29.7707 75.8306 28.672C74.668 27.5627 74.0866 26.1387 74.0866 24.4C74.0866 22.6613 74.668 21.2427 75.8306 20.144C77.004 19.0347 78.4386 18.48 80.1346 18.48C81.8306 18.48 83.26 19.0347 84.4226 20.144C85.596 21.2427 86.1826 22.6613 86.1826 24.4C86.1826 26.1387 85.596 27.5627 84.4226 28.672ZM76.6466 28.016C77.5853 28.9547 78.748 29.424 80.1346 29.424C81.5213 29.424 82.684 28.9547 83.6226 28.016C84.5613 27.0667 85.0306 25.8613 85.0306 24.4C85.0306 22.9387 84.5613 21.7387 83.6226 20.8C82.684 19.8507 81.5213 19.376 80.1346 19.376C78.748 19.376 77.5853 19.8507 76.6466 20.8C75.708 21.7387 75.2386 22.9387 75.2386 24.4C75.2386 25.8613 75.708 27.0667 76.6466 28.016Z" fill="black"/>
<mask id="mask0_54_692" style="mask-type:alpha" maskUnits="userSpaceOnUse" x="-2" y="0" width="36" height="31">
<rect x="-1.1377" y="0.274414" width="4.55184" height="30.7249" fill="black"/>
<rect y="0.274414" width="6.82775" height="3.41388" fill="black"/>
<rect y="27.585" width="6.82775" height="3.41388" fill="black"/>
<rect width="4.55184" height="30.7249" transform="matrix(-1 0 0 1 33.1377 0.274414)" fill="black"/>
<rect width="6.82775" height="3.41388" transform="matrix(-1 0 0 1 32 0.274414)" fill="black"/>
<rect width="6.82775" height="3.41388" transform="matrix(-1 0 0 1 32 27.585)" fill="black"/>
<path d="M16.0763 25.9008C13.7296 25.9008 11.9056 25.0048 10.6043 23.2128C9.30293 21.4208 8.65227 18.9142 8.65227 15.6928C8.65227 13.6022 8.94027 11.7995 9.51627 10.2848C10.1136 8.74883 10.9669 7.56483 12.0763 6.73283C13.1856 5.90083 14.5189 5.48483 16.0763 5.48483C17.6336 5.48483 18.9669 5.90083 20.0763 6.73283C21.1856 7.56483 22.0283 8.74883 22.6043 10.2848C23.2016 11.7995 23.5003 13.6022 23.5003 15.6928C23.5003 18.9142 22.8496 21.4208 21.5483 23.2128C20.2469 25.0048 18.4229 25.9008 16.0763 25.9008ZM11.0843 15.6928C11.0843 17.1648 11.2336 18.4662 11.5323 19.5968L20.0763 10.4448C19.6496 9.52749 19.0949 8.81283 18.4123 8.30083C17.7296 7.78883 16.9509 7.53283 16.0763 7.53283C14.5616 7.53283 13.3456 8.27949 12.4283 9.77283C11.5323 11.2448 11.0843 13.2182 11.0843 15.6928ZM16.0763 23.8528C17.5909 23.8528 18.7963 23.1488 19.6923 21.7408C20.6096 20.3328 21.0683 18.3168 21.0683 15.6928C21.0683 14.4342 20.9403 13.2822 20.6843 12.2368L12.1723 21.2608C13.0469 22.9888 14.3483 23.8528 16.0763 23.8528Z" fill="black"/>
</mask>
<g mask="url(#mask0_54_692)">
<rect x="-1" width="34" height="31" fill="url(#paint0_linear_54_692)"/>
</g>
</g>
<defs>
<linearGradient id="paint0_linear_54_692" x1="-1" y1="31.124" x2="29.9917" y2="-2.86688" gradientUnits="userSpaceOnUse">
<stop stop-color="#7FC64C"/>
<stop offset="0.880208" stop-color="#00DDD0"/>
</linearGradient>
<clipPath id="clip0_54_692">
<rect width="110" height="31" fill="white"/>
</clipPath>
</defs>
</svg>
