<svg width="105" height="31" viewBox="0 0 105 31" fill="none" xmlns="http://www.w3.org/2000/svg">
<g clip-path="url(#clip0_54_692)">
<rect width="105" height="31" fill="white"/>
<path d="M44.128 4.474C45.0987 3.494 46.312 3.004 47.768 3.004C49.224 3.004 50.4373 3.494 51.408 4.474C52.3787 5.454 52.864 6.66733 52.864 8.114C52.864 9.55133 52.3787 10.76 51.408 11.74C50.4467 12.7107 49.2333 13.196 47.768 13.196C46.3027 13.196 45.0847 12.7107 44.114 11.74C43.1527 10.76 42.672 9.55133 42.672 8.114C42.672 6.66733 43.1573 5.454 44.128 4.474ZM45.22 10.774C45.8827 11.4553 46.732 11.796 47.768 11.796C48.804 11.796 49.6487 11.4553 50.302 10.774C50.9647 10.0833 51.296 9.19667 51.296 8.114C51.296 7.03133 50.9647 6.14467 50.302 5.454C49.6487 4.754 48.804 4.404 47.768 4.404C46.732 4.404 45.8827 4.754 45.22 5.454C44.5667 6.14467 44.24 7.03133 44.24 8.114C44.24 9.19667 44.5667 10.0833 45.22 10.774ZM56.0591 3.2H58.2151C59.1017 3.2 59.8157 3.37733 60.3571 3.732C61.1691 4.264 61.5751 5.05733 61.5751 6.112C61.5751 6.99867 61.2577 7.71267 60.6231 8.254C60.0257 8.76733 59.2277 9.024 58.2291 9.024H57.5711V13H56.0591V3.2ZM57.5711 4.6V7.624H58.2291C59.4517 7.624 60.0631 7.11533 60.0631 6.098C60.0631 5.09933 59.4471 4.6 58.2151 4.6H57.5711ZM69.4437 4.6H67.2037V13H65.6917V4.6H63.4517V3.2H69.4437V4.6ZM72.1071 3.2H73.6191V13H72.1071V3.2ZM78.2612 4.474C79.2319 3.494 80.4452 3.004 81.9012 3.004C83.3572 3.004 84.5705 3.494 85.5412 4.474C86.5119 5.454 86.9972 6.66733 86.9972 8.114C86.9972 9.55133 86.5119 10.76 85.5412 11.74C84.5799 12.7107 83.3665 13.196 81.9012 13.196C80.4359 13.196 79.2179 12.7107 78.2472 11.74C77.2859 10.76 76.8052 9.55133 76.8052 8.114C76.8052 6.66733 77.2905 5.454 78.2612 4.474ZM79.3532 10.774C80.0159 11.4553 80.8652 11.796 81.9012 11.796C82.9372 11.796 83.7819 11.4553 84.4352 10.774C85.0979 10.0833 85.4292 9.19667 85.4292 8.114C85.4292 7.03133 85.0979 6.14467 84.4352 5.454C83.7819 4.754 82.9372 4.404 81.9012 4.404C80.8652 4.404 80.0159 4.754 79.3532 5.454C78.6999 6.14467 78.3732 7.03133 78.3732 8.114C78.3732 9.19667 78.6999 10.0833 79.3532 10.774ZM91.7043 13H90.1923V2.556L97.2763 9.976V3.2H98.7883V13.588L91.7043 6.168V13ZM42.784 18.2H49.35L43.764 27.216H49.35V28H42.196L47.796 18.984H42.784V18.2ZM52.3703 28V18.2H57.6203V18.984H53.3223V22.12H57.4663V22.904H53.3223V27.216H57.6203V28H52.3703ZM61.03 28V18.2H63.648C63.816 18.2 63.9887 18.214 64.166 18.242C64.3434 18.2607 64.5767 18.3213 64.866 18.424C65.1554 18.5267 65.4074 18.6667 65.622 18.844C65.8367 19.012 66.0234 19.2733 66.182 19.628C66.35 19.9733 66.434 20.3793 66.434 20.846C66.434 21.546 66.196 22.1433 65.72 22.638C65.2534 23.1233 64.4647 23.4033 63.354 23.478L66.826 28H65.706L62.346 23.492H61.982V28H61.03ZM61.982 22.708H62.962C64.6234 22.708 65.454 22.0873 65.454 20.846C65.454 20.454 65.3934 20.132 65.272 19.88C65.1507 19.6187 64.9734 19.4273 64.74 19.306C64.5067 19.1847 64.2687 19.1007 64.026 19.054C63.7927 19.0073 63.5127 18.984 63.186 18.984H61.982V22.708ZM78.2448 26.838C77.2275 27.7993 75.9768 28.28 74.4928 28.28C73.0088 28.28 71.7535 27.7993 70.7268 26.838C69.7095 25.8673 69.2008 24.6213 69.2008 23.1C69.2008 21.5787 69.7095 20.3373 70.7268 19.376C71.7535 18.4053 73.0088 17.92 74.4928 17.92C75.9768 17.92 77.2275 18.4053 78.2448 19.376C79.2715 20.3373 79.7848 21.5787 79.7848 23.1C79.7848 24.6213 79.2715 25.8673 78.2448 26.838ZM71.4408 26.264C72.2621 27.0853 73.2795 27.496 74.4928 27.496C75.7061 27.496 76.7235 27.0853 77.5448 26.264C78.3661 25.4333 78.7768 24.3787 78.7768 23.1C78.7768 21.8213 78.3661 20.7713 77.5448 19.95C76.7235 19.1193 75.7061 18.704 74.4928 18.704C73.2795 18.704 72.2621 19.1193 71.4408 19.95C70.6195 20.7713 70.2088 21.8213 70.2088 23.1C70.2088 24.3787 70.6195 25.4333 71.4408 26.264Z" fill="black"/>
<path d="M44.128 4.474C45.0987 3.494 46.312 3.004 47.768 3.004C49.224 3.004 50.4373 3.494 51.408 4.474C52.3787 5.454 52.864 6.66733 52.864 8.114C52.864 9.55133 52.3787 10.76 51.408 11.74C50.4467 12.7107 49.2333 13.196 47.768 13.196C46.3027 13.196 45.0847 12.7107 44.114 11.74C43.1527 10.76 42.672 9.55133 42.672 8.114C42.672 6.66733 43.1573 5.454 44.128 4.474ZM45.22 10.774C45.8827 11.4553 46.732 11.796 47.768 11.796C48.804 11.796 49.6487 11.4553 50.302 10.774C50.9647 10.0833 51.296 9.19667 51.296 8.114C51.296 7.03133 50.9647 6.14467 50.302 5.454C49.6487 4.754 48.804 4.404 47.768 4.404C46.732 4.404 45.8827 4.754 45.22 5.454C44.5667 6.14467 44.24 7.03133 44.24 8.114C44.24 9.19667 44.5667 10.0833 45.22 10.774ZM56.0591 3.2H58.2151C59.1017 3.2 59.8157 3.37733 60.3571 3.732C61.1691 4.264 61.5751 5.05733 61.5751 6.112C61.5751 6.99867 61.2577 7.71267 60.6231 8.254C60.0257 8.76733 59.2277 9.024 58.2291 9.024H57.5711V13H56.0591V3.2ZM57.5711 4.6V7.624H58.2291C59.4517 7.624 60.0631 7.11533 60.0631 6.098C60.0631 5.09933 59.4471 4.6 58.2151 4.6H57.5711ZM69.4437 4.6H67.2037V13H65.6917V4.6H63.4517V3.2H69.4437V4.6ZM72.1071 3.2H73.6191V13H72.1071V3.2ZM78.2612 4.474C79.2319 3.494 80.4452 3.004 81.9012 3.004C83.3572 3.004 84.5705 3.494 85.5412 4.474C86.5119 5.454 86.9972 6.66733 86.9972 8.114C86.9972 9.55133 86.5119 10.76 85.5412 11.74C84.5799 12.7107 83.3665 13.196 81.9012 13.196C80.4359 13.196 79.2179 12.7107 78.2472 11.74C77.2859 10.76 76.8052 9.55133 76.8052 8.114C76.8052 6.66733 77.2905 5.454 78.2612 4.474ZM79.3532 10.774C80.0159 11.4553 80.8652 11.796 81.9012 11.796C82.9372 11.796 83.7819 11.4553 84.4352 10.774C85.0979 10.0833 85.4292 9.19667 85.4292 8.114C85.4292 7.03133 85.0979 6.14467 84.4352 5.454C83.7819 4.754 82.9372 4.404 81.9012 4.404C80.8652 4.404 80.0159 4.754 79.3532 5.454C78.6999 6.14467 78.3732 7.03133 78.3732 8.114C78.3732 9.19667 78.6999 10.0833 79.3532 10.774ZM91.7043 13H90.1923V2.556L97.2763 9.976V3.2H98.7883V13.588L91.7043 6.168V13ZM42.784 18.2H49.35L43.764 27.216H49.35V28H42.196L47.796 18.984H42.784V18.2ZM52.3703 28V18.2H57.6203V18.984H53.3223V22.12H57.4663V22.904H53.3223V27.216H57.6203V28H52.3703ZM61.03 28V18.2H63.648C63.816 18.2 63.9887 18.214 64.166 18.242C64.3434 18.2607 64.5767 18.3213 64.866 18.424C65.1554 18.5267 65.4074 18.6667 65.622 18.844C65.8367 19.012 66.0234 19.2733 66.182 19.628C66.35 19.9733 66.434 20.3793 66.434 20.846C66.434 21.546 66.196 22.1433 65.72 22.638C65.2534 23.1233 64.4647 23.4033 63.354 23.478L66.826 28H65.706L62.346 23.492H61.982V28H61.03ZM61.982 22.708H62.962C64.6234 22.708 65.454 22.0873 65.454 20.846C65.454 20.454 65.3934 20.132 65.272 19.88C65.1507 19.6187 64.9734 19.4273 64.74 19.306C64.5067 19.1847 64.2687 19.1007 64.026 19.054C63.7927 19.0073 63.5127 18.984 63.186 18.984H61.982V22.708ZM78.2448 26.838C77.2275 27.7993 75.9768 28.28 74.4928 28.28C73.0088 28.28 71.7535 27.7993 70.7268 26.838C69.7095 25.8673 69.2008 24.6213 69.2008 23.1C69.2008 21.5787 69.7095 20.3373 70.7268 19.376C71.7535 18.4053 73.0088 17.92 74.4928 17.92C75.9768 17.92 77.2275 18.4053 78.2448 19.376C79.2715 20.3373 79.7848 21.5787 79.7848 23.1C79.7848 24.6213 79.2715 25.8673 78.2448 26.838ZM71.4408 26.264C72.2621 27.0853 73.2795 27.496 74.4928 27.496C75.7061 27.496 76.7235 27.0853 77.5448 26.264C78.3661 25.4333 78.7768 24.3787 78.7768 23.1C78.7768 21.8213 78.3661 20.7713 77.5448 19.95C76.7235 19.1193 75.7061 18.704 74.4928 18.704C73.2795 18.704 72.2621 19.1193 71.4408 19.95C70.6195 20.7713 70.2088 21.8213 70.2088 23.1C70.2088 24.3787 70.6195 25.4333 71.4408 26.264Z" fill="black" fill-opacity="0.2"/>
<mask id="mask0_54_692" style="mask-type:alpha" maskUnits="userSpaceOnUse" x="-1" y="0" width="36" height="31">
<rect x="-0.100586" width="3.44444" height="31" fill="black"/>
<rect x="-0.100586" width="6.88889" height="3.44444" fill="black"/>
<rect x="-0.100586" y="27.5557" width="6.88889" height="3.44444" fill="black"/>
<rect width="3.44444" height="31" transform="matrix(-1 0 0 1 34.0303 0)" fill="black"/>
<rect width="6.88889" height="3.44444" transform="matrix(-1 0 0 1 34.0303 0)" fill="black"/>
<rect width="6.88889" height="3.44444" transform="matrix(-1 0 0 1 34.0303 27.5557)" fill="black"/>
<path d="M10.9021 20.2995L22.4581 8.56348L23.4301 10.9035L11.8741 22.5315L10.9021 20.2995ZM17.1301 26.9595C15.3301 26.9595 13.7701 26.5155 12.4501 25.6275C11.1541 24.7155 10.1461 23.4075 9.42612 21.7035C8.73012 19.9755 8.38212 17.8995 8.38212 15.4755C8.38212 13.0995 8.73012 11.0475 9.42612 9.31948C10.1461 7.59148 11.1541 6.25948 12.4501 5.32348C13.7701 4.36347 15.3301 3.88347 17.1301 3.88347C18.9301 3.88347 20.4781 4.36347 21.7741 5.32348C23.0941 6.25948 24.1021 7.59148 24.7981 9.31948C25.5181 11.0475 25.8781 13.0995 25.8781 15.4755C25.8781 17.8995 25.5181 19.9755 24.7981 21.7035C24.1021 23.4075 23.0941 24.7155 21.7741 25.6275C20.4781 26.5155 18.9301 26.9595 17.1301 26.9595ZM17.1301 24.0435C18.2341 24.0435 19.1701 23.7075 19.9381 23.0355C20.7301 22.3635 21.3181 21.3915 21.7021 20.1195C22.1101 18.8475 22.3141 17.2995 22.3141 15.4755C22.3141 13.6995 22.1101 12.1755 21.7021 10.9035C21.3181 9.63148 20.7301 8.64748 19.9381 7.95148C19.1701 7.25548 18.2341 6.90748 17.1301 6.90748C16.0501 6.90748 15.1141 7.25548 14.3221 7.95148C13.5541 8.64748 12.9661 9.63148 12.5581 10.9035C12.1501 12.1755 11.9461 13.6995 11.9461 15.4755C11.9461 17.3235 12.1501 18.8835 12.5581 20.1555C12.9661 21.4275 13.5541 22.3995 14.3221 23.0715C15.1141 23.7195 16.0501 24.0435 17.1301 24.0435Z" fill="black"/>
</mask>
<g mask="url(#mask0_54_692)">
<rect x="-2.11719" y="-1.00977" width="38.3403" height="33.2955" fill="url(#paint0_linear_54_692)"/>
</g>
</g>
<defs>
<linearGradient id="paint0_linear_54_692" x1="-2.11719" y1="32.4189" x2="30.9816" y2="-5.69479" gradientUnits="userSpaceOnUse">
<stop stop-color="#7FC64C"/>
<stop offset="0.880208" stop-color="#00DDD0"/>
</linearGradient>
<clipPath id="clip0_54_692">
<rect width="105" height="31" fill="white"/>
</clipPath>
</defs>
</svg>
